# xmcd
#
# Track frame offsets:
#	150
#	963
#	14974
#
# Disc length: 382 seconds
#
# Revision: 1
# Processed by: cddbd v1.5.2PL0 Copyright (c) Steve Scherf et al.
# Submitted via: AudioConverter v5.0 Copyright (c) Ultimate Shareware Ltd
#
DISCID=18017c03
DTITLE=Michael Buble - Jazz it up
DYEAR=2005
DGENRE=Jazz
TTITLE0=Intro
TTITLE1=Sway
TTITLE2=Nice 'N Easy
EXTD=YEAR: 2005
EXTT0=
EXTT1=
EXTT2=
PLAYORDER=
